<svg width="160.000000" height="36.000000" viewBox="0 0 160 36" fill="none" xmlns="http://www.w3.org/2000/svg" xmlns:xlink="http://www.w3.org/1999/xlink">
	<desc>
			Created with Pixso.
	</desc>
	<defs>
		<clipPath id="clip2_44102">
			<rect id="Frame 3" width="32.000000" height="32.000000" transform="translate(0.000000 2.000000)" fill="white" fill-opacity="0"/>
		</clipPath>
		<clipPath id="clip2_44110">
			<rect id="Search" width="20.000000" height="20.000000" transform="translate(7.000000 26.000000) rotate(-90.000000)" fill="white" fill-opacity="0"/>
		</clipPath>
		<clipPath id="clip2_44111">
			<rect id="Frame 3" width="32.000000" height="32.000000" transform="translate(0.000000 2.000000)" fill="white" fill-opacity="0"/>
		</clipPath>
	</defs>
	<g clip-path="url(#clip2_44102)">
		<circle id="Ellipse 2" cx="16.000000" cy="18.000000" r="16.000000" fill="#4640DE" fill-opacity="1.000000"/>
		<path id="Vector 7" d="M11.7 26.51C13.14 27.12 14.69 27.59 16 27.59C17.3 27.59 18.85 27.12 20.29 26.51C21.07 26.19 21.82 25.82 22.48 25.47C22.97 25.21 23.46 25.78 23.06 26.17C22.51 26.72 21.86 27.3 21.15 27.85C19.63 29.01 17.81 30 16 30C14.18 30 12.36 29.01 10.84 27.85C10.13 27.3 9.48 26.72 8.93 26.17C8.54 25.78 9.02 25.21 9.51 25.47C10.17 25.82 10.92 26.19 11.7 26.51Z" fill="#FFFFFF" fill-opacity="1.000000" fill-rule="evenodd"/>
		<rect id="Iconly/Light/Search" width="20.000000" height="20.000000" transform="translate(6.000000 26.000000) rotate(-90.000000)" fill="#FFFFFF" fill-opacity="0"/>
		<circle id="Ellipse_739" r="7.490465" transform="matrix(-1.11022e-16 -1 1 -1.11022e-16 15.8057 16.1943)" stroke="#FFFFFF" stroke-opacity="1.000000" stroke-width="2.000000" stroke-linejoin="round"/>
		<path id="Line_181" d="M21.4 10.98L24.33 8.04" stroke="#FFFFFF" stroke-opacity="1.000000" stroke-width="2.000000" stroke-linejoin="round" stroke-linecap="round"/>
	</g>
	<path id="JobHuntly" d="M48.5 21.71L48.5 9.54L52.15 9.54L52.15 21.71C52.14 25.1 49.73 27.24 46.19 27.24C43.03 27.24 40.54 25.57 40.56 22.08L44.23 22.08C44.25 23.47 45.09 24.28 46.38 24.28C47.74 24.28 48.49 23.39 48.5 21.71ZM73.02 27L69.44 27L69.44 9.54L73.07 9.54L73.07 16.1L73.18 16.1C73.66 15.04 74.71 13.74 76.9 13.74C79.77 13.74 82.21 15.97 82.21 20.47C82.21 24.84 79.88 27.21 76.9 27.21C74.78 27.21 73.68 25.99 73.18 24.9L73.02 24.9L73.02 27ZM88.14 27L84.45 27L84.45 9.54L88.14 9.54L88.14 16.74L95.63 16.74L95.63 9.54L99.31 9.54L99.31 27L95.63 27L95.63 19.78L88.14 19.78L88.14 27ZM140.77 9.54L144.4 9.54L144.4 27L140.77 27L140.77 9.54ZM135.91 13.91L138.38 13.91L138.38 16.63L135.91 16.63L135.91 22.97C135.91 23.98 136.41 24.25 137.14 24.25C137.48 24.25 137.86 24.16 138.04 24.13L138.61 26.83C138.25 26.95 137.58 27.14 136.64 27.18C134.01 27.28 132.26 26.02 132.28 23.45L132.28 16.63L130.49 16.63L130.49 13.91L132.28 13.91L132.28 10.77L135.91 10.77L135.91 13.91ZM67.24 20.5C67.24 24.53 64.77 27.25 60.8 27.25C56.83 27.25 54.35 24.53 54.35 20.5C54.35 16.44 56.83 13.74 60.8 13.74C64.77 13.74 67.24 16.44 67.24 20.5ZM122.84 16.75C121.37 16.75 120.36 17.74 120.36 19.42L120.36 27L116.73 27L116.73 13.91L120.19 13.91L120.19 16.21L120.34 16.21C120.93 14.69 122.33 13.74 124.28 13.74C127 13.74 128.8 15.61 128.8 18.66L128.8 27L125.16 27L125.16 19.31C125.17 17.71 124.3 16.75 122.84 16.75ZM107.94 24.09C109.24 24.09 110.44 23.17 110.44 21.42L110.44 13.91L114.07 13.91L114.07 27L110.59 27L110.59 24.62L110.44 24.62C109.86 26.15 108.45 27.16 106.48 27.16C103.84 27.16 102.05 25.3 102.04 22.24L102.04 13.91L105.68 13.91L105.68 21.59C105.68 23.13 106.57 24.09 107.94 24.09ZM154.17 28.41C153.43 30.52 152 31.91 149.3 31.91C148.38 31.91 147.53 31.75 147.01 31.53L147.83 28.82C149.11 29.21 150.02 29.15 150.5 27.93L150.71 27.37L146.02 13.91L149.83 13.91L152.54 23.52L152.68 23.52L155.42 13.91L159.26 13.91L154.17 28.41ZM58.05 20.47C58.05 22.76 58.98 24.44 60.82 24.44C62.62 24.44 63.55 22.76 63.55 20.47C63.55 18.19 62.62 16.5 60.82 16.5C58.98 16.5 58.05 18.19 58.05 20.47ZM75.74 16.62C73.98 16.62 72.99 18.11 72.99 20.45C72.99 22.78 74 24.32 75.74 24.32C77.52 24.32 78.5 22.74 78.5 20.45C78.5 18.18 77.54 16.62 75.74 16.62Z" fill="#25324B" fill-opacity="1.000000" fill-rule="evenodd"/>
	<g clip-path="url(#clip2_44111)">
		<circle id="Ellipse 2" cx="16.000000" cy="18.000000" r="16.000000" fill="#4640DE" fill-opacity="1.000000"/>
		<path id="Vector 7" d="M11.7 25.51C13.14 26.12 14.69 26.59 16 26.59C17.3 26.59 18.85 26.12 20.29 25.51C21.07 25.19 21.82 24.82 22.48 24.47C22.97 24.21 23.46 24.78 23.06 25.17C22.51 25.72 21.86 26.3 21.15 26.85C19.63 28.01 17.81 29 16 29C14.18 29 12.36 28.01 10.84 26.85C10.13 26.3 9.48 25.72 8.93 25.17C8.54 24.78 9.02 24.21 9.51 24.47C10.17 24.82 10.92 25.19 11.7 25.51Z" fill="#FFFFFF" fill-opacity="1.000000" fill-rule="evenodd"/>
		<g clip-path="url(#clip2_44110)">
			<path id="Vector" d="M21.71 11.31C21.39 10.99 21.39 10.47 21.71 10.15L23.43 8.02L23.43 7.98C23.86 7.55 24.57 7.55 25 7.98C25.44 8.41 25.44 9.11 25 9.54L22.98 11.31L22.9 11.38C22.74 11.5 22.55 11.57 22.34 11.57C22.1 11.57 21.88 11.48 21.71 11.31ZM8.66 17.18C8.66 15.28 9.42 13.47 10.78 12.13C12.13 10.79 13.97 10.03 15.89 10.03C19.88 10.03 23.11 13.23 23.11 17.18C23.11 21.13 19.88 24.33 15.89 24.33C11.9 24.33 8.66 21.13 8.66 17.18Z" fill="#FFFFFF" fill-opacity="1.000000" fill-rule="nonzero"/>
		</g>
	</g>
	<path id="JobHuntly" d="M48.5 21.71L48.5 9.54L52.15 9.54L52.15 21.71C52.14 25.1 49.73 27.24 46.19 27.24C43.03 27.24 40.54 25.57 40.56 22.08L44.23 22.08C44.25 23.47 45.09 24.28 46.38 24.28C47.74 24.28 48.49 23.39 48.5 21.71ZM73.02 27L69.44 27L69.44 9.54L73.07 9.54L73.07 16.1L73.18 16.1C73.66 15.04 74.71 13.74 76.9 13.74C79.77 13.74 82.21 15.97 82.21 20.47C82.21 24.84 79.88 27.21 76.9 27.21C74.78 27.21 73.68 25.99 73.18 24.9L73.02 24.9L73.02 27ZM88.14 27L84.45 27L84.45 9.54L88.14 9.54L88.14 16.74L95.63 16.74L95.63 9.54L99.31 9.54L99.31 27L95.63 27L95.63 19.78L88.14 19.78L88.14 27ZM140.77 9.54L144.4 9.54L144.4 27L140.77 27L140.77 9.54ZM135.91 13.91L138.38 13.91L138.38 16.63L135.91 16.63L135.91 22.97C135.91 23.98 136.41 24.25 137.14 24.25C137.48 24.25 137.86 24.16 138.04 24.13L138.61 26.83C138.25 26.95 137.58 27.14 136.64 27.18C134.01 27.28 132.26 26.02 132.28 23.45L132.28 16.63L130.49 16.63L130.49 13.91L132.28 13.91L132.28 10.77L135.91 10.77L135.91 13.91ZM67.24 20.5C67.24 24.53 64.77 27.25 60.8 27.25C56.83 27.25 54.35 24.53 54.35 20.5C54.35 16.44 56.83 13.74 60.8 13.74C64.77 13.74 67.24 16.44 67.24 20.5ZM122.84 16.75C121.37 16.75 120.36 17.74 120.36 19.42L120.36 27L116.73 27L116.73 13.91L120.19 13.91L120.19 16.21L120.34 16.21C120.93 14.69 122.33 13.74 124.28 13.74C127 13.74 128.8 15.61 128.8 18.66L128.8 27L125.16 27L125.16 19.31C125.17 17.71 124.3 16.75 122.84 16.75ZM107.94 24.09C109.24 24.09 110.44 23.17 110.44 21.42L110.44 13.91L114.07 13.91L114.07 27L110.59 27L110.59 24.62L110.44 24.62C109.86 26.15 108.45 27.16 106.48 27.16C103.84 27.16 102.05 25.3 102.04 22.24L102.04 13.91L105.68 13.91L105.68 21.59C105.68 23.13 106.57 24.09 107.94 24.09ZM154.17 28.41C153.43 30.52 152 31.91 149.3 31.91C148.38 31.91 147.53 31.75 147.01 31.53L147.83 28.82C149.11 29.21 150.02 29.15 150.5 27.93L150.71 27.37L146.02 13.91L149.83 13.91L152.54 23.52L152.68 23.52L155.42 13.91L159.26 13.91L154.17 28.41ZM58.05 20.47C58.05 22.76 58.98 24.44 60.82 24.44C62.62 24.44 63.55 22.76 63.55 20.47C63.55 18.19 62.62 16.5 60.82 16.5C58.98 16.5 58.05 18.19 58.05 20.47ZM75.74 16.62C73.98 16.62 72.99 18.11 72.99 20.45C72.99 22.78 74 24.32 75.74 24.32C77.52 24.32 78.5 22.74 78.5 20.45C78.5 18.18 77.54 16.62 75.74 16.62Z" fill="#25324B" fill-opacity="1.000000" fill-rule="evenodd"/>
</svg>
