<svg width="116.464844" height="28.000000" viewBox="0 0 116.465 28" fill="none" xmlns="http://www.w3.org/2000/svg" xmlns:xlink="http://www.w3.org/1999/xlink">
	<desc>
			Created with Pixso.
	</desc>
	<defs>
		<clipPath id="clip2_5194">
			<rect id="amd-logo-1" width="116.465324" height="28.000000" fill="white" fill-opacity="0"/>
		</clipPath>
	</defs>
	<g opacity="0.300000">
		<rect id="amd-logo-1" width="116.465324" height="28.000000" fill="#FFFFFF" fill-opacity="0"/>
		<g clip-path="url(#clip2_5194)">
			<path id="Vector" d="M27.36 26.13L20.9 26.13L18.93 21.33L8.17 21.33L6.37 26.13L0.02 26.13L9.72 1.87L16.67 1.87L27.36 26.13ZM13.28 7.67L9.76 17.1L17.16 17.1L13.28 7.67ZM50.81 1.87L56.04 1.87L56.04 26.13L50.04 26.13L50.04 10.98L43.55 18.59L42.63 18.59L36.14 10.98L36.14 26.13L30.14 26.13L30.14 1.87L35.36 1.87L43.09 10.87L50.81 1.87ZM71.23 1.87C80.02 1.87 84.53 7.38 84.53 14.04C84.53 21.01 80.16 26.13 70.56 26.13L60.61 26.13L60.61 1.87L71.23 1.87ZM66.61 21.69L70.53 21.69C76.56 21.69 78.36 17.56 78.36 14C78.36 9.84 76.14 6.32 70.46 6.32L66.61 6.32L66.61 21.69L66.61 21.69ZM96.46 7.62L88.9 0L116.43 0L116.43 27.76L108.87 20.13L108.87 7.62L96.46 7.62ZM96.46 9.15L88.67 17L88.67 28L99.57 28L107.35 20.14L96.46 20.14L96.46 9.15Z" fill="#202430" fill-opacity="1.000000" fill-rule="nonzero"/>
		</g>
	</g>
</svg>
