<svg width="82.064453" height="32.000000" viewBox="0 0 82.0645 32" fill="none" xmlns="http://www.w3.org/2000/svg" xmlns:xlink="http://www.w3.org/1999/xlink">
	<desc>
			Created with Pixso.
	</desc>
	<defs>
		<clipPath id="clip2_5187">
			<rect id="intel-3" width="82.064705" height="32.000000" fill="white" fill-opacity="0"/>
		</clipPath>
	</defs>
	<g opacity="0.300000">
		<rect id="intel-3" width="82.064705" height="32.000000" fill="#FFFFFF" fill-opacity="0"/>
		<g clip-path="url(#clip2_5187)">
			<path id="Vector" d="M0 0.44L5.94 0.44L5.94 6.41L0 6.41L0 0.44Z" fill="#202430" fill-opacity="1.000000" fill-rule="nonzero"/>
			<path id="Vector" d="M5.79 31.55L5.79 10.02L0.14 10.02L0.14 31.53L5.79 31.53L5.79 31.55ZM43.16 31.76L43.16 26.49C42.34 26.49 41.64 26.45 41.13 26.36C40.54 26.28 40.1 26.07 39.8 25.77C39.51 25.47 39.32 25.04 39.21 24.47C39.12 23.94 39.08 23.24 39.08 22.39L39.08 14.89L43.16 14.89L43.16 10.02L39.08 10.02L39.08 1.65L33.44 1.65L33.44 22.45C33.44 24.22 33.59 25.7 33.88 26.89C34.18 28.06 34.69 29.02 35.38 29.74C36.08 30.46 37.01 30.97 38.13 31.29C39.27 31.61 40.71 31.76 42.42 31.76L43.16 31.76ZM75.46 31.55L75.46 0L69.82 0L69.82 31.55L75.46 31.55ZM28.01 12.15C26.44 10.45 24.24 9.6 21.45 9.6C20.1 9.6 18.85 9.88 17.75 10.43C16.63 10.98 15.7 11.75 14.94 12.72L14.65 13.13L14.65 10.02L9.09 10.02L9.09 31.53L14.69 31.53L14.69 20.07L14.69 20.48C14.75 18.46 15.24 16.97 16.17 16.02C17.16 15 18.37 14.49 19.74 14.49C21.37 14.49 22.62 15 23.44 15.97C24.24 16.95 24.67 18.33 24.67 20.09L24.67 31.53L30.35 31.53L30.35 19.33C30.37 16.27 29.57 13.85 28.01 12.15ZM66.9 20.75C66.9 19.2 66.63 17.76 66.1 16.4C65.55 15.06 64.79 13.87 63.84 12.85C62.87 11.83 61.7 11.04 60.35 10.47C59 9.9 57.5 9.62 55.87 9.62C54.33 9.62 52.87 9.92 51.51 10.49C50.16 11.09 48.98 11.87 47.98 12.87C46.99 13.87 46.19 15.06 45.62 16.42C45.02 17.78 44.75 19.25 44.75 20.8C44.75 22.35 45.02 23.81 45.57 25.17C46.12 26.53 46.9 27.72 47.88 28.72C48.85 29.72 50.05 30.53 51.45 31.1C52.84 31.7 54.39 31.99 56.04 31.99C60.81 31.99 63.77 29.8 65.55 27.76L61.49 24.66C60.65 25.68 58.62 27.06 56.08 27.06C54.49 27.06 53.18 26.7 52.19 25.96C51.2 25.24 50.52 24.22 50.16 22.96L50.1 22.77L66.9 22.77L66.9 20.75ZM50.14 18.78C50.14 17.21 51.94 14.46 55.8 14.44C59.67 14.44 61.49 17.18 61.49 18.76L50.14 18.78ZM81.89 28.83C81.79 28.57 81.64 28.36 81.45 28.17C81.26 27.98 81.05 27.83 80.79 27.72C80.54 27.62 80.26 27.55 79.99 27.55C79.69 27.55 79.44 27.62 79.19 27.72C78.93 27.83 78.72 27.98 78.53 28.17C78.34 28.36 78.19 28.57 78.09 28.83C77.98 29.08 77.92 29.36 77.92 29.63C77.92 29.93 77.98 30.19 78.09 30.44C78.19 30.7 78.34 30.91 78.53 31.1C78.72 31.29 78.93 31.44 79.19 31.55C79.44 31.65 79.71 31.72 79.99 31.72C80.28 31.72 80.54 31.65 80.79 31.55C81.05 31.44 81.26 31.29 81.45 31.1C81.64 30.91 81.79 30.7 81.89 30.44C82 30.19 82.06 29.91 82.06 29.63C82.06 29.36 82 29.08 81.89 28.83L81.89 28.83ZM81.55 30.31C81.47 30.53 81.34 30.72 81.19 30.87C81.05 31.02 80.86 31.14 80.64 31.23C80.43 31.31 80.22 31.36 79.97 31.36C79.74 31.36 79.5 31.31 79.29 31.23C79.08 31.14 78.89 31.02 78.74 30.87C78.59 30.72 78.47 30.53 78.38 30.31C78.3 30.1 78.25 29.89 78.25 29.63C78.25 29.4 78.3 29.17 78.38 28.95C78.47 28.74 78.59 28.55 78.74 28.4C78.89 28.25 79.08 28.13 79.29 28.04C79.5 27.96 79.71 27.91 79.97 27.91C80.2 27.91 80.43 27.96 80.64 28.04C80.86 28.13 81.05 28.25 81.19 28.4C81.34 28.55 81.47 28.74 81.55 28.95C81.64 29.17 81.68 29.38 81.68 29.63C81.68 29.89 81.64 30.1 81.55 30.31ZM80.37 29.83C80.54 29.8 80.66 29.74 80.77 29.63C80.88 29.53 80.94 29.38 80.94 29.17C80.94 28.93 80.88 28.76 80.73 28.64C80.6 28.51 80.37 28.44 80.09 28.44L79.16 28.44L79.16 30.84L79.61 30.84L79.61 29.87L79.92 29.87L80.52 30.84L80.98 30.84L80.37 29.83ZM80.14 29.46L79.61 29.46L79.61 28.78L80.14 28.78C80.2 28.78 80.26 28.81 80.33 28.83C80.39 28.85 80.43 28.89 80.45 28.93C80.5 28.98 80.5 29.04 80.5 29.12C80.5 29.21 80.47 29.27 80.45 29.32C80.41 29.36 80.37 29.4 80.33 29.42C80.26 29.44 80.2 29.46 80.14 29.46L80.14 29.46Z" fill="#202430" fill-opacity="1.000000" fill-rule="nonzero"/>
		</g>
	</g>
</svg>
