<svg width="108.190430" height="32.000000" viewBox="0 0 108.19 32" fill="none" xmlns="http://www.w3.org/2000/svg" xmlns:xlink="http://www.w3.org/1999/xlink">
	<desc>
			Created with Pixso.
	</desc>
	<defs>
		<clipPath id="clip2_5196">
			<rect id="talkit 1" width="108.190475" height="32.000000" fill="white" fill-opacity="0"/>
		</clipPath>
	</defs>
	<g opacity="0.300000">
		<rect id="talkit 1" width="108.190475" height="32.000000" fill="#FFFFFF" fill-opacity="0"/>
		<g clip-path="url(#clip2_5196)">
			<path id="Vector" d="M10.82 31.6C10.25 31.6 9.96 31.35 9.96 30.86L9.96 30.7C9.96 30.39 10.22 29.91 10.75 29.29C11.3 28.63 11.57 27.98 11.57 27.32L11.57 6.68L9.58 6.68C9.01 6.68 8.48 6.92 8 7.42C7.56 7.91 7.19 8.47 6.91 9.07C6.66 9.65 6.35 10.18 5.98 10.68C5.6 11.18 5.23 11.43 4.85 11.43L4.21 11.43C3.51 11.43 3.2 11.05 3.27 10.29L4.02 4.95C4.1 4.14 4.52 3.73 5.3 3.73L24.6 3.73C25.35 3.73 25.78 4.14 25.88 4.95L26.67 10.33C26.72 10.67 26.66 10.94 26.48 11.15C26.31 11.33 26.06 11.43 25.73 11.43L25.09 11.43C24.72 11.43 24.34 11.18 23.96 10.68C23.59 10.18 23.26 9.65 22.99 9.07C22.71 8.47 22.34 7.92 21.86 7.42C21.39 6.92 20.86 6.68 20.29 6.68L18.33 6.68L18.33 27.32C18.33 27.98 18.6 28.63 19.12 29.29C19.67 29.91 19.95 30.39 19.95 30.7L19.95 30.86C19.95 31.35 19.65 31.6 19.05 31.6L10.82 31.6ZM42.62 27.32C42.69 27.95 42.83 28.46 43.03 28.86C43.25 29.22 43.47 29.46 43.67 29.56C43.89 29.67 44.09 29.8 44.27 29.95C44.44 30.11 44.53 30.31 44.53 30.54C44.53 31.41 43.12 31.84 40.29 31.84C39.14 31.84 38.27 31.69 37.7 31.41C37.15 31.12 36.79 30.63 36.65 29.95C35.69 31.31 34.1 32 31.88 32C29.77 32 28.06 31.48 26.73 30.46C25.43 29.44 24.78 27.97 24.78 26.03C24.78 24.14 25.43 22.68 26.73 21.63C28.03 20.56 29.64 20.02 31.54 20.02C33.01 20.02 34.28 20.35 35.33 21L35.33 20.89C35.08 18.29 34.79 16.54 34.47 15.62C34.17 14.71 33.57 14.25 32.66 14.25C32.09 14.25 31.62 14.53 31.27 15.08C30.92 15.63 30.66 16.24 30.49 16.88C30.33 17.55 30.02 18.16 29.58 18.69C29.13 19.24 28.53 19.51 27.78 19.51C27.01 19.51 26.37 19.28 25.87 18.81C25.39 18.33 25.15 17.72 25.15 16.96C25.15 15.44 25.88 14.3 27.33 13.55C28.78 12.76 30.56 12.37 32.66 12.37C35.17 12.37 37.23 13.09 38.86 14.53C40.51 15.94 41.49 17.86 41.79 20.3L42.62 27.32ZM33.94 29.99C34.52 29.99 34.98 29.71 35.33 29.13C35.71 28.55 35.89 27.9 35.89 27.17L35.74 25.36C35.49 23.19 34.72 22.1 33.42 22.1C32.84 22.1 32.38 22.35 32.03 22.85C31.68 23.32 31.5 23.96 31.5 24.77C31.5 26.24 31.71 27.48 32.14 28.5C32.59 29.5 33.19 29.99 33.94 29.99L33.94 29.99ZM46.18 31.6C45.6 31.6 45.31 31.35 45.31 30.86L45.31 30.7C45.31 30.39 45.55 29.91 46.03 29.29C46.53 28.63 46.78 27.98 46.78 27.32L46.78 9.38C46.78 8.7 46.53 8.05 46.03 7.42C45.55 6.77 45.31 6.31 45.31 6.05L45.31 5.89C45.31 5.6 45.59 5.3 46.14 4.99L51.81 2.08C52.33 1.85 52.75 1.83 53.05 2.04C53.37 2.23 53.54 2.51 53.54 2.91L53.54 27.32C53.54 27.98 53.81 28.63 54.36 29.29C54.91 29.91 55.19 30.39 55.19 30.7L55.19 30.86C55.19 31.35 54.89 31.6 54.29 31.6L46.18 31.6ZM76.77 28.3C76.9 28.49 77.27 28.83 77.9 29.33C78.55 29.82 78.88 30.28 78.88 30.7L78.88 30.86C78.88 31.35 78.59 31.6 78.01 31.6L70.12 31.6C69.55 31.6 69.26 31.34 69.26 30.82L69.26 30.7C69.26 30.39 69.45 30.01 69.83 29.56C70.2 29.09 70.28 28.67 70.05 28.3L66.75 23.16L64.87 24.97L64.87 27.32C64.87 27.98 65.14 28.63 65.69 29.29C66.27 29.91 66.56 30.39 66.56 30.7L66.56 30.86C66.56 31.35 66.26 31.6 65.66 31.6L57.54 31.6C56.94 31.6 56.64 31.35 56.64 30.86L56.64 30.7C56.64 30.39 56.89 29.91 57.39 29.29C57.89 28.63 58.15 27.98 58.15 27.32L58.15 9.38C58.15 8.7 57.84 8.05 57.24 7.42C56.64 6.77 56.34 6.31 56.34 6.05L56.34 5.89C56.34 5.6 56.62 5.3 57.17 4.99L63.18 2.08C63.71 1.87 64.12 1.86 64.42 2.04C64.72 2.23 64.87 2.51 64.87 2.91L64.87 21.55L69.94 17C70.24 16.79 70.35 16.53 70.28 16.21C70.23 15.91 70.1 15.62 69.9 15.39C69.71 15.1 69.51 14.81 69.3 14.53C69.1 14.21 69 13.94 69 13.7L69 13.55C69 13.02 69.29 12.76 69.86 12.76L75.8 12.76C76.37 12.76 76.66 13.01 76.66 13.51L76.66 13.66C76.66 13.98 76.49 14.3 76.13 14.64C75.78 14.96 75.28 15.34 74.63 15.78C74.1 16.13 73.6 16.52 73.13 16.96L70.73 19.28L76.77 28.3ZM84.34 10.44C83.07 10.44 82.03 10.08 81.23 9.34C80.43 8.59 80.03 7.64 80.03 6.52C80.03 5.39 80.43 4.46 81.23 3.73C82.03 2.97 83.07 2.59 84.34 2.59C85.6 2.59 86.62 2.97 87.42 3.73C88.23 4.46 88.62 5.39 88.62 6.52C88.62 7.64 88.23 8.59 87.42 9.34C86.62 10.08 85.6 10.44 84.34 10.44ZM80.33 31.6C79.73 31.6 79.42 31.35 79.42 30.86L79.42 30.7C79.42 30.39 79.68 29.9 80.18 29.25C80.68 28.59 80.93 27.94 80.93 27.29L80.93 19.83C80.93 19.15 80.68 18.49 80.18 17.86C79.67 17.21 79.42 16.76 79.42 16.53L79.42 16.37C79.42 16.06 79.71 15.76 80.29 15.47L85.96 12.56C86.49 12.33 86.9 12.3 87.2 12.49C87.5 12.67 87.65 12.97 87.65 13.39L87.65 27.29C87.65 27.94 87.93 28.59 88.48 29.25C89.05 29.9 89.34 30.39 89.34 30.7L89.34 30.86C89.34 31.35 89.03 31.6 88.4 31.6L80.33 31.6ZM98.75 32C96.85 32 95.34 31.37 94.24 30.11C93.17 28.86 92.63 27.06 92.63 24.73L92.63 15.43L91.2 15.43C90.97 15.44 90.74 15.35 90.56 15.19C90.41 15.01 90.33 14.77 90.34 14.53L90.34 13.66C90.34 13.06 90.62 12.76 91.2 12.76L91.91 12.76C93.07 12.76 94.06 12.41 94.88 11.7C95.71 10.97 96.25 10 96.5 8.8C96.62 8.12 96.96 7.78 97.51 7.78L98.37 7.78C99.05 7.78 99.39 8.12 99.39 8.8L99.39 12.76L103.26 12.76C103.51 12.76 103.71 12.85 103.86 13.04C104.03 13.19 104.12 13.4 104.12 13.66L104.12 14.53C104.12 14.65 104.1 14.77 104.06 14.89C104.01 15 103.94 15.11 103.86 15.19C103.78 15.27 103.69 15.33 103.58 15.38C103.48 15.42 103.37 15.43 103.26 15.43L99.39 15.43L99.39 24.85C99.39 25.5 99.55 26.03 99.88 26.42C100.2 26.79 100.6 26.97 101.08 26.97C102.15 26.97 102.98 26.49 103.56 25.52C103.73 25.28 103.93 25.15 104.16 25.12C104.38 25.07 104.57 25.11 104.72 25.24C104.9 25.37 104.98 25.56 104.98 25.79C104.98 27.44 104.42 28.89 103.29 30.15C102.19 31.38 100.68 32 98.75 32Z" fill="#202430" fill-opacity="1.000000" fill-rule="nonzero"/>
		</g>
	</g>
</svg>
