<svg width="182.682617" height="24.000000" viewBox="0 0 182.683 24" fill="none" xmlns="http://www.w3.org/2000/svg" xmlns:xlink="http://www.w3.org/1999/xlink">
	<desc>
			Created with Pixso.
	</desc>
	<defs>
		<clipPath id="clip2_5192">
			<rect id="tesla-9 1" width="182.682159" height="24.000000" fill="white" fill-opacity="0"/>
		</clipPath>
	</defs>
	<g opacity="0.300000">
		<rect id="tesla-9 1" width="182.682159" height="24.000000" fill="#FFFFFF" fill-opacity="0"/>
		<g clip-path="url(#clip2_5192)">
			<path id="Vector" d="M156.06 9.52L156.06 23.98L160.65 23.98L160.65 14.34L177.43 14.34L177.43 23.98L182.02 23.98L182.02 9.52L156.06 9.52ZM160.13 4.83L177.83 4.83C180.32 4.37 182.09 2.12 182.61 0.01L155.34 0.01C155.87 2.12 157.7 4.3 160.13 4.83ZM142.1 23.98C144.4 22.99 145.64 21.27 146.17 19.29L125.52 19.29L125.52 0.08L120.87 0.08L120.87 23.98L142.1 23.98ZM86.45 4.76L102.84 4.76C105.33 4.04 107.36 2.12 107.89 0.08L81.93 0.08L81.93 14.21L103.17 14.21L103.17 19.16L86.52 19.16C83.9 19.89 81.67 21.67 80.55 23.98L107.76 23.98L107.76 9.52L86.52 9.52L86.45 4.76ZM46.08 4.83L63.77 4.83C66.26 4.37 68.1 2.12 68.56 0.01L41.22 0.01C41.75 2.12 43.58 4.3 46.08 4.83ZM46.08 14.27L63.77 14.27C66.26 13.81 68.1 11.57 68.56 9.45L41.22 9.45C41.75 11.57 43.58 13.75 46.08 14.27ZM46.08 23.98L63.77 23.98C66.26 23.52 68.1 21.27 68.56 19.16L41.22 19.16C41.75 21.27 43.58 23.52 46.08 23.98Z" fill="#202430" fill-opacity="1.000000" fill-rule="nonzero"/>
			<path id="Vector" d="M0 0.08C0.52 2.19 2.35 4.3 4.78 4.83L12.25 4.83L12.65 4.96L12.65 23.91L17.3 23.91L17.3 4.96L17.69 4.83L25.17 4.83C27.66 4.17 29.43 2.19 29.95 0.08L29.95 0.01L0 0.08Z" fill="#202430" fill-opacity="1.000000" fill-rule="nonzero"/>
		</g>
	</g>
</svg>
